<?xml version="1.0" encoding="UTF-8"?>
<svg xmlns="http://www.w3.org/2000/svg" width="960" height="540" viewBox="0 0 960 540">
  <title>Fusion 09 — Math over Architecture</title>
  <rect width="960" height="540" fill="#12121c" />
<style>
@keyframes am0_op { 0.0%{opacity:0} 100.0%{opacity:1} }
.am0 { animation: am0_op 0.8s ease both; }
@keyframes am1_op { 0.0%{opacity:0} 100.0%{opacity:1} }
.am1 { animation: am1_op 0.8s ease both; }
@keyframes am2_op { 0.0%{opacity:0} 100.0%{opacity:1} }
.am2 { animation: am2_op 0.8s ease both; }
</style>
  <path class="am0" d="M256.6,335.6 C285.533,335.6 314.467,335.6 343.4,335.6 C348.923,335.6 353.4,340.077 353.4,345.6 C353.4,355.2 353.4,364.8 353.4,374.4 C353.4,379.923 348.923,384.4 343.4,384.4 C314.467,384.4 285.533,384.4 256.6,384.4 C251.077,384.4 246.6,379.923 246.6,374.4 C246.6,364.8 246.6,355.2 246.6,345.6 C246.6,340.077 251.077,335.6 256.6,335.6 Z" fill="#3b82f6" fill-opacity="1" stroke="#e5e7eb" stroke-width="2" stroke-opacity="1" opacity="1" transform="matrix(1,0,0,1,0,0)" />
  <path class="am1" d="M552.4,335.6 C584.133,335.6 615.867,335.6 647.6,335.6 C653.123,335.6 657.6,340.077 657.6,345.6 C657.6,355.2 657.6,364.8 657.6,374.4 C657.6,379.923 653.123,384.4 647.6,384.4 C615.867,384.4 584.133,384.4 552.4,384.4 C546.877,384.4 542.4,379.923 542.4,374.4 C542.4,364.8 542.4,355.2 542.4,345.6 C542.4,340.077 546.877,335.6 552.4,335.6 Z" fill="#10b981" fill-opacity="1" stroke="#e5e7eb" stroke-width="2" stroke-opacity="1" opacity="1" transform="matrix(1,0,0,1,0,0)" />
  <path class="am2" d="M353.4,360 C416.4,360 479.4,360 542.4,360 C539.067,361.667 535.733,363.333 532.4,365 C535.733,363.333 539.067,361.667 542.4,360 C539.067,358.333 535.733,356.667 532.4,355 Z" fill="#3b82f6" fill-opacity="1" stroke="#94a3b8" stroke-width="2" stroke-opacity="1" opacity="1" transform="matrix(1,0,0,1,0,0)" />
  <path class="am3" d="M9.54,-5.523 C11.74,-5.523 13.94,-5.523 16.139,-5.523 C16.474,-5.523 16.905,-5.523 16.905,-5.954 C16.905,-6.408 16.498,-6.408 16.139,-6.408 C13.94,-6.408 11.74,-6.408 9.54,-6.408 C9.54,-8.608 9.54,-10.807 9.54,-13.007 C9.54,-13.342 9.54,-13.772 9.11,-13.772 C8.656,-13.772 8.656,-13.366 8.656,-13.007 C8.656,-10.807 8.656,-8.608 8.656,-6.408 C6.456,-6.408 4.256,-6.408 2.056,-6.408 C1.722,-6.408 1.291,-6.408 1.291,-5.978 C1.291,-5.523 1.698,-5.523 2.056,-5.523 C4.256,-5.523 6.456,-5.523 8.656,-5.523 C8.656,-3.324 8.656,-1.124 8.656,1.076 C8.656,1.411 8.656,1.841 9.086,1.841 C9.54,1.841 9.54,1.435 9.54,1.076 C9.54,-1.124 9.54,-3.324 9.54,-5.523 C9.54,-5.523 9.54,-5.523 9.54,-5.523 Z M10.712,-7.651 C10.712,-9.636 10.592,-11.573 9.732,-13.39 C8.751,-15.374 7.03,-15.9 5.858,-15.9 C4.471,-15.9 2.774,-15.207 1.889,-13.222 C1.219,-11.716 0.98,-10.234 0.98,-7.651 C0.98,-5.332 1.148,-3.587 2.008,-1.889 C2.941,-0.072 4.591,0.502 5.834,0.502 C7.914,0.502 9.11,-0.741 9.803,-2.128 C10.664,-3.921 10.712,-6.265 10.712,-7.651 C10.712,-7.651 10.712,-7.651 10.712,-7.651 Z M5.834,0.024 C5.069,0.024 3.515,-0.406 3.061,-3.013 C2.798,-4.447 2.798,-6.265 2.798,-7.938 C2.798,-9.899 2.798,-11.668 3.18,-13.079 C3.587,-14.681 4.806,-15.422 5.834,-15.422 C6.743,-15.422 8.13,-14.872 8.584,-12.816 C8.895,-11.453 8.895,-9.564 8.895,-7.938 C8.895,-6.336 8.895,-4.519 8.632,-3.061 C8.177,-0.43 6.671,0.024 5.834,0.024 C5.834,0.024 5.834,0.024 5.834,0.024 Z M6.886,-15.327 C6.886,-15.876 6.886,-15.9 6.408,-15.9 C5.834,-15.255 4.639,-14.37 2.176,-14.37 C2.176,-14.139 2.176,-13.908 2.176,-13.677 C2.726,-13.677 3.921,-13.677 5.236,-14.298 C5.236,-10.146 5.236,-5.994 5.236,-1.841 C5.236,-0.98 5.165,-0.693 3.061,-0.693 C2.813,-0.693 2.566,-0.693 2.319,-0.693 C2.319,-0.462 2.319,-0.231 2.319,0 C2.965,-0.048 5.284,-0.048 6.073,-0.048 C6.073,-0.263 6.073,-0.478 6.073,-0.693 C7.069,-0.693 8.066,-0.693 9.062,-0.693 C6.958,-0.693 6.886,-0.98 6.886,-1.841 C6.886,-6.336 6.886,-10.831 6.886,-15.327 C6.886,-15.327 6.886,-15.327 6.886,-15.327 Z M16.139,-7.747 C16.474,-7.747 16.905,-7.747 16.905,-8.177 C16.905,-8.632 16.498,-8.632 16.139,-8.632 C11.445,-8.632 6.751,-8.632 2.056,-8.632 C1.722,-8.632 1.291,-8.632 1.291,-8.201 C1.291,-7.747 1.698,-7.747 2.056,-7.747 C6.751,-7.747 11.445,-7.747 16.139,-7.747 C16.139,-7.747 16.139,-7.747 16.139,-7.747 Z M16.139,-3.3 C16.474,-3.3 16.905,-3.3 16.905,-3.73 C16.905,-4.184 16.498,-4.184 16.139,-4.184 C11.445,-4.184 6.751,-4.184 2.056,-4.184 C1.722,-4.184 1.291,-4.184 1.291,-3.754 C1.291,-3.3 1.698,-3.3 2.056,-3.3 C6.751,-3.3 11.445,-3.3 16.139,-3.3 C16.139,-3.3 16.139,-3.3 16.139,-3.3 Z M4.28,-5.547 C4.926,-5.547 6.551,-5.595 7.699,-6.025 C9.516,-6.719 9.684,-8.106 9.684,-8.536 C9.684,-9.588 8.775,-10.544 7.197,-10.544 C4.686,-10.544 1.076,-8.273 1.076,-4.017 C1.076,-1.506 2.511,0.239 4.686,0.239 C7.938,0.239 9.995,-2.295 9.995,-2.606 C9.995,-2.75 9.851,-2.869 9.755,-2.869 C9.684,-2.869 9.66,-2.845 9.445,-2.63 C7.914,-0.598 5.643,-0.239 4.734,-0.239 C3.371,-0.239 2.654,-1.315 2.654,-3.084 C2.654,-3.419 2.654,-4.017 3.013,-5.547 C3.435,-5.547 3.858,-5.547 4.28,-5.547 C4.28,-5.547 4.28,-5.547 4.28,-5.547 Z M3.132,-6.025 C4.16,-9.708 6.432,-10.066 7.197,-10.066 C8.249,-10.066 8.966,-9.445 8.966,-8.536 C8.966,-6.025 5.141,-6.025 4.136,-6.025 C3.802,-6.025 3.467,-6.025 3.132,-6.025 C3.132,-6.025 3.132,-6.025 3.132,-6.025 Z M4.527,-5.818 C5.138,-5.818 5.749,-5.818 6.36,-5.818 C6.025,-4.368 5.738,-3.188 5.738,-2.008 C5.738,-1.897 5.738,-1.211 5.914,-0.638 C6.121,0.032 6.28,0.159 6.567,0.159 C6.918,0.159 7.285,-0.143 7.285,-0.526 C7.285,-0.638 7.269,-0.669 7.205,-0.813 C6.87,-1.546 6.631,-2.311 6.631,-3.618 C6.631,-3.985 6.631,-4.655 6.87,-5.818 C7.513,-5.818 8.156,-5.818 8.799,-5.818 C9.054,-5.818 9.229,-5.818 9.389,-5.946 C9.58,-6.121 9.628,-6.328 9.628,-6.424 C9.628,-6.87 9.229,-6.87 8.958,-6.87 C7.04,-6.87 5.122,-6.87 3.204,-6.87 C2.869,-6.87 2.264,-6.87 1.482,-6.105 C0.909,-5.531 0.462,-4.798 0.462,-4.686 C0.462,-4.543 0.574,-4.495 0.701,-4.495 C0.861,-4.495 0.893,-4.543 0.988,-4.67 C1.769,-5.818 2.71,-5.818 3.076,-5.818 C3.385,-5.818 3.693,-5.818 4.001,-5.818 C3.539,-4.129 2.694,-2.2 2.104,-1.036 C1.993,-0.797 1.833,-0.478 1.833,-0.335 C1.833,0 2.104,0.159 2.359,0.159 C2.965,0.159 3.124,-0.446 3.459,-1.753 C3.815,-3.108 4.171,-4.463 4.527,-5.818 C4.527,-5.818 4.527,-5.818 4.527,-5.818 Z M4.75,-9.947 C4.75,-10.297 4.495,-10.552 4.129,-10.552 C3.714,-10.552 3.252,-10.17 3.252,-9.692 C3.252,-9.341 3.507,-9.086 3.873,-9.086 C4.288,-9.086 4.75,-9.468 4.75,-9.947 C4.75,-9.947 4.75,-9.947 4.75,-9.947 Z M2.423,-4.097 C2.136,-3.363 1.849,-2.63 1.562,-1.897 C1.482,-1.658 1.403,-1.466 1.403,-1.196 C1.403,-0.414 2.008,0.159 2.853,0.159 C4.4,0.159 5.053,-2.072 5.053,-2.279 C5.053,-2.439 4.926,-2.487 4.814,-2.487 C4.623,-2.487 4.591,-2.375 4.543,-2.216 C4.176,-0.94 3.523,-0.287 2.885,-0.287 C2.694,-0.287 2.503,-0.367 2.503,-0.797 C2.503,-1.18 2.614,-1.466 2.821,-1.961 C2.981,-2.391 3.14,-2.821 3.316,-3.252 C3.48,-3.682 3.645,-4.113 3.81,-4.543 C3.953,-4.91 4.144,-5.404 4.144,-5.675 C4.144,-6.472 3.507,-7.03 2.694,-7.03 C1.148,-7.03 0.478,-4.798 0.478,-4.591 C0.478,-4.447 0.59,-4.384 0.717,-4.384 C0.925,-4.384 0.94,-4.479 0.988,-4.639 C1.435,-6.153 2.168,-6.583 2.646,-6.583 C2.869,-6.583 3.029,-6.504 3.029,-6.057 C3.029,-5.898 3.013,-5.675 2.853,-5.197 C2.71,-4.83 2.566,-4.463 2.423,-4.097 C2.423,-4.097 2.423,-4.097 2.423,-4.097 Z" fill="#3b82f6" fill-opacity="1" stroke="#e5e7eb" stroke-width="2" stroke-opacity="1" opacity="1" transform="matrix(1,0,0,1,471.317,157.03)" />
</svg>
